<svg height="1024" viewBox="0 0 1024 1024" width="1024" xmlns="http://www.w3.org/2000/svg"><path d="m822.1 753.6 5.2-.1c-1.7.6-3.4 1.3-5.2 1.9zm-266.3 119.5c-17 .6-34.3.9-51.8.9-89.6 0-173.3-8.1-251.2-24.4s-139.3-40.3-184.3-72v96.4c0 26.1 19.5 50.3 58.4 72.6s91.8 40 158.8 53 139.7 19.6 218.3 19.6c51.9 0 101.3-2.8 148.1-8.5-46.1-29.2-81.2-78.5-96.3-137.6zm-428.8-579.6c38.9 22.3 91.8 40 158.8 53 66.9 13 139.7 19.6 218.3 19.6s151.4-6.5 218.3-19.6c66.9-13 119.8-30.7 158.8-53 38.9-22.3 58.4-46.5 58.4-72.6v-72.6c0-26.1-19.5-50.3-58.4-72.6s-91.8-40-158.8-53-139.8-19.5-218.4-19.5-151.4 6.5-218.3 19.6-119.8 30.7-158.7 53-58.4 46.5-58.4 72.6v72.6c0 26 19.4 50.2 58.4 72.5zm0 435.4c38.9 22.3 91.8 40 158.8 53s139.7 19.6 218.3 19.6c14.8 0 29.3-.2 43.6-.7 1.4-56.6 20.4-108.2 50.9-147.6-30.8 2.1-62.3 3.2-94.6 3.2-89.6 0-173.3-8.1-251.2-24.4s-139.3-40.3-184.3-72v96.4c.1 26 19.5 50.2 58.5 72.5zm0-217.7c38.9 22.3 91.8 40 158.8 53 66.9 13 139.7 19.6 218.3 19.6s151.4-6.5 218.3-19.6 119.8-30.7 158.8-53c38.9-22.3 58.4-46.5 58.4-72.6v-96.4c-45 31.8-106.4 55.8-184.3 72s-161.7 24.4-251.3 24.4-173.3-8.1-251.2-24.4-139.3-40.3-184.3-72v96.4c.1 26.1 19.5 50.3 58.5 72.6zm745.5 497.7v-50.9l134.4-.1v-80.5h-134.4l.6-116.8 133.8-1.1v-89.6l-134.4-1.1v-63h-72.4c-111.3 0-201.6 90.2-201.6 201.6 0 111.3 90.2 201.6 201.6 201.6h72.4z"/></svg>